<svg xmlns="http://www.w3.org/2000/svg" width="120" height="120" viewBox="0 0 295 232" version="1.1"><path d="" stroke="none" fill="#000000" fill-rule="evenodd"/><path d="M 131.689 6.644 C 131.310 7.023, 131 9.246, 131 11.583 C 131 14.048, 130.475 16.045, 129.750 16.338 C 128.750 16.741, 128.750 16.858, 129.750 16.921 C 130.666 16.979, 131 19.809, 131 27.500 L 131 38 115.559 38 C 107.066 38, 99.894 38.362, 99.621 38.805 C 99.347 39.248, 99.389 47.123, 99.715 56.305 L 100.307 73 115.653 73 L 131 73 131 88.441 C 131 96.934, 131.406 104.133, 131.903 104.440 C 132.893 105.052, 165.994 105.339, 166.592 104.741 C 166.796 104.538, 167.004 97.313, 167.055 88.686 L 167.147 73 182.573 73 L 198 73 198 55.500 L 198 38 178.538 38 C 155.898 38, 151.490 39.056, 143.261 46.455 C 138.034 51.155, 132.479 60.201, 133.380 62.548 C 134.319 64.995, 135.508 64.193, 137.734 59.611 C 144.546 45.589, 153.095 42, 179.684 42 L 194 42 194 55.500 L 194 69 179.059 69 C 170.080 69, 163.869 69.403, 163.494 70.010 C 163.151 70.565, 162.902 77.765, 162.941 86.010 L 163.013 101 149.006 101 L 135 101 135 85.607 C 135 72.493, 134.766 70.124, 133.418 69.607 C 132.548 69.273, 125.283 69, 117.274 69 L 102.711 69 103.343 56.250 C 103.691 49.237, 103.981 43.174, 103.988 42.776 C 103.994 42.378, 110.862 41.928, 119.250 41.776 L 134.500 41.500 134.776 26.250 L 135.052 11 149.026 11 L 163 11 163 21.500 C 163 31.385, 163.119 32, 165.030 32 C 166.978 32, 167.049 31.488, 166.780 19.250 L 166.500 6.500 149.439 6.227 C 140.056 6.077, 132.069 6.265, 131.689 6.644 M 3.700 134.633 C 2.174 136.159, 3.144 138.154, 5.876 139.107 C 8.556 140.041, 9.292 141.654, 16.688 162.805 L 24.623 185.500 29.191 185.800 C 33.311 186.070, 33.818 185.861, 34.370 183.663 C 34.706 182.323, 38.195 171.927, 42.123 160.562 C 48.948 140.812, 49.391 139.872, 52.132 139.324 C 54.323 138.885, 55 138.190, 55 136.375 C 55 134.051, 54.807 134, 46 134 C 37.067 134, 37 134.019, 37 136.500 C 37 138.346, 37.531 139, 39.031 139 C 40.149 139, 41.349 139.746, 41.699 140.657 C 42.433 142.572, 30.906 178.343, 29.911 177.236 C 28.915 176.127, 18 142.753, 18 140.816 C 18 139.723, 18.965 139.022, 20.750 138.816 C 22.728 138.589, 23.500 137.938, 23.500 136.500 C 23.500 134.659, 22.739 134.477, 13.950 134.216 C 8.698 134.060, 4.086 134.248, 3.700 134.633 M 153 136.233 C 153 138.230, 153.620 138.874, 156 139.350 L 159 139.950 159 160.500 L 159 181.050 156 181.650 C 153.947 182.061, 153 182.842, 153 184.125 C 153 185.845, 153.911 186, 164 186 C 174.333 186, 175 185.879, 175 184 C 175 182.645, 174.333 182, 172.934 182 C 167.842 182, 167 180.505, 167 171.465 C 167 163, 167 163, 169.809 163 C 174.059 163, 175.588 164.734, 179.428 173.908 C 184.051 184.951, 186.020 187.009, 191.924 186.968 C 194.441 186.951, 197.295 186.333, 198.267 185.595 C 200.490 183.908, 199.517 180.701, 197.022 181.493 C 193.669 182.557, 191.739 180.631, 187.991 172.480 C 185.912 167.960, 183.276 163.606, 182.131 162.804 C 180.091 161.376, 180.119 161.314, 183.532 159.686 C 190.560 156.335, 193.347 146.253, 188.832 140.514 C 185.321 136.050, 180.811 134.795, 166.250 134.230 L 153 133.716 153 136.233 M 167 148.996 L 167 159.272 171.685 158.630 C 179.893 157.505, 183.804 153.100, 182.547 146.398 C 181.701 141.888, 178.999 139.959, 172.603 139.298 L 167 138.720 167 148.996 M 277.455 145.455 C 276.105 146.805, 275 148.395, 275 148.990 C 275 149.748, 274.423 149.762, 273.066 149.035 C 269.720 147.245, 259.859 147.788, 256.299 149.960 C 249.933 153.841, 248.163 162.014, 252.351 168.185 C 254.655 171.580, 254.665 171.696, 252.851 173.936 C 250.670 176.629, 250.410 182.266, 252.391 183.910 C 253.547 184.869, 253.293 185.553, 250.891 187.955 C 247.483 191.364, 247.209 194.724, 250.045 198.331 C 252.483 201.429, 257.490 202.989, 265 202.989 C 276.206 202.989, 283.545 198.800, 284.663 191.767 C 285.336 187.532, 283.644 182.521, 281.158 181.387 C 280.246 180.971, 274.919 180.371, 269.321 180.053 C 263.723 179.735, 258.831 179.164, 258.451 178.784 C 258.071 178.404, 258.059 176.901, 258.425 175.444 C 259.025 173.052, 259.419 172.856, 262.475 173.429 C 274.244 175.637, 283.806 165.652, 279.589 155.559 C 277.771 151.209, 278.696 147.724, 280.948 150.437 C 282.655 152.494, 284.317 152.412, 286.345 150.171 C 288.411 147.888, 288.431 146.574, 286.429 144.571 C 284.128 142.271, 280.257 142.652, 277.455 145.455 M 70.500 149.167 C 66.412 151.428, 64 154.386, 64 157.139 C 64 160.689, 67.045 162.581, 70.115 160.938 C 71.831 160.020, 72.127 159.169, 71.683 156.436 C 71.160 153.214, 71.296 153.035, 74.760 152.385 C 77.173 151.933, 79.239 152.183, 80.942 153.135 C 83.081 154.332, 83.549 155.396, 83.797 159.640 L 84.095 164.714 78.473 165.374 C 70.331 166.331, 65.324 169.166, 64.129 173.496 C 62.897 177.956, 64.325 183.414, 67.261 185.471 C 71.500 188.439, 81.272 186.859, 84.096 182.748 C 84.424 182.271, 85.447 183.033, 86.369 184.440 C 87.646 186.389, 88.891 187, 91.589 187 C 96.147 187, 99 185.447, 99 182.965 C 99 181.386, 98.312 181, 95.500 181 L 92 181 91.998 169.250 C 91.996 151.893, 89.435 148.013, 78 148.045 C 74.975 148.054, 71.600 148.559, 70.500 149.167 M 218.500 149.164 C 208.716 154.563, 205.250 168.555, 211.113 178.988 C 213.969 184.069, 219.392 187, 225.936 187 C 231.597 187, 235.284 185.492, 238.783 181.745 C 240.734 179.656, 240.857 179.126, 239.629 178.107 C 238.491 177.162, 237.493 177.339, 234.845 178.953 C 230.906 181.355, 226.019 181.578, 222.072 179.537 C 219.121 178.011, 218.286 176.652, 216.997 171.281 L 216.224 168.062 227.862 167.781 L 239.500 167.500 239.801 162.298 C 240.162 156.043, 238.186 151.665, 234.033 149.517 C 230.637 147.761, 221.422 147.552, 218.500 149.164 M 103.797 150.750 C 103.571 151.881, 104.388 152.908, 106.106 153.652 C 108.556 154.714, 119 166.187, 119 167.816 C 119 169.787, 108.733 180.897, 106.047 181.834 C 104.371 182.418, 103 183.594, 103 184.448 C 103 185.736, 104.533 186, 112 186 C 119.398 186, 121 185.729, 121 184.475 C 121 183.637, 119.848 182.512, 118.440 181.977 C 115.676 180.926, 115.732 180.666, 119.898 175.119 L 122.438 171.737 126.160 176.059 C 130.035 180.558, 130.224 182, 126.941 182 C 125.667 182, 125 182.687, 125 184 C 125 185.867, 125.667 186, 135 186 C 144.111 186, 145 185.833, 145 184.125 C 145 182.865, 144.068 182.064, 142.158 181.682 C 140.194 181.289, 137.569 178.950, 133.658 174.110 C 130.546 170.258, 128 166.881, 128 166.605 C 128 164.958, 138.475 153.919, 140.526 153.404 C 142.067 153.017, 143 152.070, 143 150.892 C 143 149.194, 142.181 149, 135 149 C 127.667 149, 127 149.167, 127 151 C 127 152.100, 127.648 153, 128.441 153 C 131.248 153, 131.068 155.033, 127.915 158.957 L 124.722 162.930 121.371 158.715 C 117.473 153.813, 117.278 153, 120 153 C 121.333 153, 122 152.333, 122 151 C 122 149.149, 121.333 149, 113.073 149 C 105.372 149, 104.099 149.240, 103.797 150.750 M 220.522 154.250 C 218.953 155.613, 217.694 157.996, 217.328 160.295 L 216.724 164.089 224.612 163.795 L 232.500 163.500 232.265 159.500 C 231.855 152.514, 225.691 149.758, 220.522 154.250 M 260 154 C 257.077 156.923, 257.249 163.946, 260.314 166.826 C 265.484 171.682, 273 167.827, 273 160.320 C 273 153.423, 264.641 149.359, 260 154 M 79.090 170.085 C 74.780 170.664, 71 173.623, 71 176.420 C 71 179.023, 73.781 181.333, 76.914 181.333 C 81.558 181.333, 84.209 178.287, 83.815 173.403 L 83.500 169.493 79.090 170.085 M 257.077 188.856 C 256.531 189.877, 256.178 192.908, 256.293 195.592 C 256.455 199.347, 256.908 200.551, 258.256 200.811 C 259.244 201.001, 260.335 200.352, 260.755 199.324 C 261.331 197.913, 262.690 197.469, 266.754 197.362 C 272.927 197.200, 277 194.940, 277 191.677 C 277 187.814, 275.144 187, 266.335 187 C 259.308 187, 257.922 187.278, 257.077 188.856" stroke="none" fill="#154d4e" fill-rule="evenodd"/><path d="M 124.571 17.571 C 123.365 18.778, 123 21.333, 123 28.571 L 123 38 127 38 L 131 38 131 27.607 C 131 19.052, 130.720 17.107, 129.418 16.607 C 127.049 15.698, 126.295 15.848, 124.571 17.571 M 134.780 28.750 L 134.500 41.500 128.750 41.800 C 124.055 42.045, 123 42.421, 123 43.850 C 123 47.149, 120.829 48, 112.407 48 C 106.752 48, 104.079 48.387, 103.778 49.250 C 103.539 49.938, 103.228 54.663, 103.088 59.750 L 102.834 69 117.335 69 C 125.311 69, 132.548 69.273, 133.418 69.607 C 134.766 70.124, 135 72.493, 135 85.607 L 135 101 145.500 101 L 156 101 156 91.622 C 156 81.915, 156.511 80.580, 160.500 79.849 C 162.098 79.556, 162.601 78.478, 163 74.491 L 163.500 69.500 175.250 69.218 L 187 68.937 187 59.668 C 187 53.793, 186.561 49.961, 185.800 49.200 C 184.987 48.387, 180.324 48, 171.357 48 C 158.903 48, 158.023 47.871, 156.594 45.831 C 155.085 43.676, 155.049 43.674, 151.002 45.499 C 146.134 47.694, 140.747 53.409, 137.770 59.537 C 135.523 64.162, 134.322 65.003, 133.399 62.597 C 131.798 58.424, 142.330 45.454, 150.608 41.403 L 156 38.765 156 28.954 C 156 16.249, 155.768 16, 143.958 16 L 135.060 16 134.780 28.750 M 93.243 49.157 C 91.534 50.866, 91.496 77.096, 93.200 78.800 C 94.011 79.611, 98.644 80, 107.500 80 C 116.356 80, 120.989 80.389, 121.800 81.200 C 122.617 82.017, 123 86.792, 123 96.165 C 123 108.750, 123.166 110.018, 124.934 110.965 C 125.998 111.534, 132.716 112, 139.863 112 C 150.512 112, 153.150 111.707, 154.479 110.379 C 155.370 109.487, 155.960 108.024, 155.789 107.129 C 155.529 105.766, 153.520 105.418, 143.489 105 L 131.500 104.500 131.225 88.750 L 130.949 73 115.505 73 L 100.062 73 99.781 60.750 C 99.500 48.504, 99.499 48.500, 96.993 48.207 C 95.614 48.046, 93.927 48.473, 93.243 49.157 M 167.187 76.250 L 167.500 79.500 175.847 79.792 C 184.927 80.110, 187 79.289, 187 75.378 C 187 73.032, 186.866 73, 176.937 73 L 166.873 73 167.187 76.250 M 77.419 196.132 C 77.034 196.754, 77.457 197.676, 78.360 198.181 C 79.262 198.686, 80 200.325, 80 201.822 C 80 204.344, 79.697 204.545, 75.894 204.545 C 70.099 204.545, 67 208.224, 67 215.101 C 67 219.066, 67.504 220.595, 69.455 222.545 C 72.273 225.364, 75.581 225.682, 78.777 223.443 C 80.789 222.034, 81 222.034, 81 223.443 C 81 224.506, 81.951 225, 84 225 C 87.186 225, 88.220 222.682, 85.500 221.638 C 84.273 221.167, 84 218.692, 84 208.031 L 84 195 81.059 195 C 79.441 195, 77.803 195.509, 77.419 196.132 M 147.714 195.619 C 146.521 196.813, 146.913 198, 148.500 198 C 149.750 198, 150 200, 150 210 C 150 220, 149.750 222, 148.500 222 C 147.675 222, 147 222.450, 147 223 C 147 223.550, 149.475 224, 152.500 224 C 155.525 224, 158 223.550, 158 223 C 158 222.450, 157.338 222, 156.529 222 C 155.322 222, 155.008 219.618, 154.779 208.750 L 154.500 195.500 151.464 195.203 C 149.794 195.039, 148.107 195.227, 147.714 195.619 M 199 196.330 C 199 197.131, 199.675 198.045, 200.500 198.362 C 201.709 198.826, 202 201.096, 202 210.062 C 202 220.346, 201.849 221.227, 200 221.710 C 196.119 222.725, 198.067 224, 203.500 224 C 208.739 224, 210.690 222.863, 207.530 221.650 C 206.364 221.203, 206.002 218.440, 205.780 208.293 L 205.500 195.500 202.250 195.187 C 199.928 194.963, 199 195.289, 199 196.330 M 93.667 196.667 C 93.300 197.033, 93 198.158, 93 199.167 C 93 200.456, 93.742 201, 95.500 201 C 97.500 201, 98 200.500, 98 198.500 C 98 196.742, 97.456 196, 96.167 196 C 95.158 196, 94.033 196.300, 93.667 196.667 M 215.701 196.632 C 215.316 197.018, 215 198.158, 215 199.167 C 215 200.469, 215.745 201, 217.570 201 C 219.659 201, 220.079 200.582, 219.820 198.760 C 219.503 196.543, 217.055 195.278, 215.701 196.632 M 256.364 197.493 C 256.018 198.396, 256.214 199.614, 256.800 200.200 C 258.324 201.724, 261.210 200.331, 260.812 198.265 C 260.369 195.963, 257.165 195.407, 256.364 197.493 M 178 198.752 C 175.998 199.752, 173.752 201.998, 172.752 204 C 166.765 215.985, 177.750 229.318, 188.872 223.566 C 195.486 220.146, 194.949 216.792, 188.314 220.075 C 181.141 223.624, 176 219.580, 176 210.388 C 176 204.592, 177.912 201.459, 182.043 200.486 C 184.876 199.819, 190 203.094, 190 205.573 C 190 206.358, 190.734 207, 191.631 207 C 192.959 207, 193.147 206.304, 192.642 203.250 C 192.301 201.188, 192.017 198.938, 192.011 198.250 C 192.005 197.563, 191.325 197, 190.500 197 C 189.675 197, 189 197.439, 189 197.975 C 189 198.609, 188.102 198.609, 186.435 197.975 C 182.943 196.648, 182.046 196.730, 178 198.752 M 8 198.640 C 8 198.992, 8.746 199.825, 9.658 200.492 C 10.996 201.470, 11.274 203.231, 11.099 209.602 C 10.837 219.177, 10.220 222, 8.392 222 C 7.626 222, 7 222.450, 7 223 C 7 223.550, 9.250 224, 12 224 C 16.835 224, 18.582 222.821, 15.500 221.638 C 14.381 221.209, 14 219.424, 14 214.613 C 14 204.292, 14.955 203.698, 18.038 212.104 C 20.369 218.461, 21.084 219.500, 23.125 219.500 C 25.171 219.500, 25.846 218.508, 28.002 212.332 C 29.378 208.389, 30.840 204.826, 31.252 204.415 C 31.663 204.003, 32 207.792, 32 212.833 C 32 220.315, 31.724 222, 30.500 222 C 29.675 222, 29 222.450, 29 223 C 29 223.550, 31.475 224, 34.500 224 C 40.199 224, 41.039 223.501, 38.523 221.610 C 37.495 220.837, 36.846 217.586, 36.387 210.909 C 35.813 202.565, 35.940 201.237, 37.364 200.691 C 40.755 199.389, 38.972 197.892, 34.391 198.195 L 29.782 198.500 26.907 206.401 C 25.325 210.746, 23.858 214.475, 23.647 214.686 C 23.435 214.898, 21.985 211.230, 20.425 206.536 L 17.588 198 12.794 198 C 10.157 198, 8 198.288, 8 198.640 M 51.357 204.970 C 47.944 206.382, 45.997 210.038, 46.032 214.973 C 46.066 219.879, 47.198 221.979, 50.855 223.928 C 55.216 226.251, 64.165 222.765, 61.270 219.870 C 60.544 219.144, 60.021 219.157, 59.554 219.913 C 58.484 221.644, 53.466 221.173, 51.655 219.171 C 48.691 215.896, 49.624 215, 56 215 L 62 215 62 211.655 C 62 206.410, 56.392 202.888, 51.357 204.970 M 111.500 204.924 C 107.794 206.480, 105.696 209.810, 105.596 214.293 C 105.408 222.687, 111.878 227.183, 118.911 223.546 C 122.963 221.451, 121.968 219.822, 117.111 220.598 C 114.325 221.044, 112.908 220.765, 111.672 219.529 C 109.312 217.170, 109.482 210.779, 111.963 208.534 C 114.260 206.455, 117.225 207.193, 116.797 209.737 C 116.397 212.112, 120.761 212.787, 121.643 210.487 C 122.970 207.031, 115.819 203.110, 111.500 204.924 M 129.796 205.126 C 126.836 206.232, 125.201 209.601, 126.833 211.233 C 128.330 212.730, 131.145 211.331, 130.797 209.263 C 130.579 207.970, 131.166 207.500, 133 207.500 C 134.953 207.500, 135.566 208.073, 135.804 210.118 C 136.076 212.463, 135.641 212.853, 131.622 213.865 C 126.787 215.082, 125.338 217.227, 126.425 221.557 C 127.164 224.501, 131.126 225.719, 134.686 224.097 C 136.552 223.247, 137.579 223.235, 138.564 224.053 C 140.299 225.493, 144 224.317, 144 222.326 C 144 221.421, 143.426 221.006, 142.609 221.320 C 141.524 221.736, 141.131 220.329, 140.826 214.930 C 140.582 210.613, 139.882 207.465, 138.967 206.569 C 136.910 204.554, 132.983 203.936, 129.796 205.126 M 236.750 205.447 C 235.238 206.236, 234 206.458, 234 205.941 C 234 205.423, 232.425 205, 230.500 205 C 228.056 205, 227 205.452, 227 206.500 C 227 207.325, 227.675 208, 228.500 208 C 229.690 208, 230 209.444, 230 215 C 230 220.556, 229.690 222, 228.500 222 C 227.675 222, 227 222.450, 227 223 C 227 223.550, 229.250 224, 232 224 C 236.835 224, 238.582 222.821, 235.500 221.638 C 234.453 221.236, 234 219.602, 234 216.223 C 234 210.375, 235.689 207.680, 239.056 208.155 C 241.337 208.477, 241.520 208.949, 241.796 215.250 C 241.980 219.468, 241.699 222, 241.046 222 C 240.471 222, 240 222.450, 240 223 C 240 223.550, 242.025 224, 244.500 224 C 246.975 224, 249 223.550, 249 223 C 249 222.450, 248.601 222, 248.113 222 C 247.625 222, 247.045 218.796, 246.823 214.880 C 246.486 208.914, 246.044 207.454, 244.100 205.880 C 241.319 203.628, 240.346 203.571, 236.750 205.447 M 91 206.500 C 91 207.325, 91.675 208, 92.500 208 C 93.680 208, 94 209.392, 94 214.531 C 94 219.415, 93.621 221.208, 92.500 221.638 C 89.312 222.862, 91.240 224, 96.500 224 C 101.933 224, 103.881 222.725, 100 221.710 C 98.208 221.242, 98 220.346, 98 213.094 L 98 205 94.500 205 C 92.056 205, 91 205.452, 91 206.500 M 213 206.500 C 213 207.325, 213.675 208, 214.500 208 C 215.680 208, 216 209.392, 216 214.531 C 216 219.415, 215.621 221.208, 214.500 221.638 C 211.418 222.821, 213.165 224, 218 224 C 222.835 224, 224.582 222.821, 221.500 221.638 C 220.339 221.193, 220 219.248, 220 213.031 L 220 205 216.500 205 C 214.056 205, 213 205.452, 213 206.500 M 254 206.393 C 254 207.159, 254.675 208.045, 255.500 208.362 C 256.607 208.787, 257 210.540, 257 215.062 C 257 220.346, 256.725 221.259, 255 221.710 C 251.119 222.725, 253.067 224, 258.500 224 C 263.760 224, 265.688 222.862, 262.500 221.638 C 261.339 221.193, 261 219.248, 261 213.031 L 261 205 257.500 205 C 255.175 205, 254 205.468, 254 206.393 M 270.455 207.455 C 268.522 209.387, 268 210.943, 268 214.766 C 268 222.818, 273.792 226.900, 280.606 223.651 C 285.385 221.372, 284.917 219.913, 279.639 220.636 C 275.836 221.157, 275.067 220.934, 273.639 218.894 C 271.576 215.949, 271.543 212.097, 273.557 209.223 C 275.767 206.066, 279 206.272, 279 209.570 C 279 211.659, 279.418 212.079, 281.240 211.820 C 282.472 211.644, 283.619 210.767, 283.790 209.871 C 284.735 204.907, 274.803 203.107, 270.455 207.455 M 51.567 209.195 C 49.967 211.467, 49.995 211.504, 53.572 211.816 C 57.855 212.190, 58.820 211.524, 57.357 209.202 C 55.736 206.627, 53.378 206.624, 51.567 209.195 M 72.066 209.876 C 69.577 214.528, 71.523 221, 75.413 221 C 78.873 221, 80.155 218.763, 79.808 213.328 C 79.513 208.709, 79.362 208.487, 76.316 208.192 C 73.959 207.963, 72.856 208.400, 72.066 209.876 M 130.958 217.550 C 129.897 218.829, 129.954 219.383, 131.286 220.714 C 132.617 222.046, 133.171 222.103, 134.450 221.042 C 135.302 220.334, 136 218.910, 136 217.878 C 136 215.564, 132.780 215.355, 130.958 217.550" stroke="none" fill="#59c5b1" fill-rule="evenodd"/></svg>